# xmcd
#
# Track frame offsets: 
#        150
#        28843
#        60328
#        85479
#        125434
#        151865
#        196595
#        262543
#        294756
#
# Disc length: 4266 seconds
#
# Revision: 0
# Processed by: cddbd v1.5.2PL0 Copyright (c) Steve Scherf et al.
# Submitted via: ExactAudioCopy v0.99pb5
#
DISCID=6510a809
DTITLE=The Bottoms Up Blues Gang - Drinking Live At The Shanti
DYEAR=2014
DGENRE=Blues
TTITLE0=Meet Me Out Back
TTITLE1=Big Road
TTITLE2=Testimonial
TTITLE3=Comin' Home
TTITLE4=Sucker In The Key Of G
TTITLE5=Uncle Bill Green
TTITLE6=Wang Dang-Watchtower
TTITLE7=New World Blues
TTITLE8=I Want To Fuck You In The Park
EXTD=
EXTT0=
EXTT1=
EXTT2=
EXTT3=
EXTT4=
EXTT5=
EXTT6=
EXTT7=
EXTT8=
PLAYORDER=
